<?xml version="1.0" standalone="no"?>
 <!DOCTYPE svg PUBLIC "-//W3C//DTD SVG 1.1//EN" 
 "http://www.w3.org/Graphics/SVG/1.1/DTD/svg11.dtd"> 
<svg xmlns="http://www.w3.org/2000/svg" version="1.1" 
    width="29.7002cm" height="21.0007cm" viewBox="0 0 116930 82680 ">
<title>SVG Picture created as chain-item-brd.svg date 2018/04/30 09:25:44 </title>
  <desc>Picture generated by PCBNEW </desc>
<g style="fill:#000000; fill-opacity:1;stroke:#000000; stroke-opacity:1;
stroke-linecap:round; stroke-linejoin:round; "
 transform="translate(0 0) scale(1 1)">
</g>
<g style="fill:#000000; fill-opacity:0.0; 
stroke:#000000; stroke-width:-0.000393701; stroke-opacity:1; 
stroke-linecap:round; stroke-linejoin:round;">
</g>
<g style="fill:#000000; fill-opacity:0.0; 
stroke:#000000; stroke-width:39.3701; stroke-opacity:1; 
stroke-linecap:round; stroke-linejoin:round;">
</g>
<g style="fill:#000000; fill-opacity:0.0; 
stroke:#000000; stroke-width:59.0551; stroke-opacity:1; 
stroke-linecap:round; stroke-linejoin:round;">
<rect x="69685.9" y="65357.2" width="42519.7" height="12598.4" rx="0" />
</g>
<g style="fill:#000000; fill-opacity:0.0; 
stroke:#000000; stroke-width:39.3701; stroke-opacity:1; 
stroke-linecap:round; stroke-linejoin:round;">
</g>
<g style="fill:#000000; fill-opacity:0.0; 
stroke:#000000; stroke-width:59.0551; stroke-opacity:1; 
stroke-linecap:round; stroke-linejoin:round;">
<rect x="3937.01" y="3937.01" width="109056" height="74806" rx="0" />
</g>
<g style="fill:#000000; fill-opacity:0.0; 
stroke:#000000; stroke-width:39.3701; stroke-opacity:1; 
stroke-linecap:round; stroke-linejoin:round;">
</g>
<g style="fill:#000000; fill-opacity:0.0; 
stroke:#000000; stroke-width:59.0551; stroke-opacity:1; 
stroke-linecap:round; stroke-linejoin:round;">
<rect x="4724.41" y="4724.41" width="107481" height="73231.2" rx="0" />
</g>
<g style="fill:#000000; fill-opacity:0.0; 
stroke:#000000; stroke-width:39.3701; stroke-opacity:1; 
stroke-linecap:round; stroke-linejoin:round;">
</g>
<g style="fill:#000000; fill-opacity:0.0; 
stroke:#000000; stroke-width:59.0551; stroke-opacity:1; 
stroke-linecap:round; stroke-linejoin:round;">
<path d="M23622 4724
L23622 3937
" />
</g>
<g style="fill:#000000; fill-opacity:0.0; 
stroke:#000000; stroke-width:39.3701; stroke-opacity:1; 
stroke-linecap:round; stroke-linejoin:round;">
</g>
<g style="fill:#000000; fill-opacity:0.0; 
stroke:#000000; stroke-width:59.0551; stroke-opacity:1; 
stroke-linecap:round; stroke-linejoin:round;">
<path d="M43307 4724
L43307 3937
" />
</g>
<g style="fill:#000000; fill-opacity:0.0; 
stroke:#000000; stroke-width:39.3701; stroke-opacity:1; 
stroke-linecap:round; stroke-linejoin:round;">
</g>
<g style="fill:#000000; fill-opacity:0.0; 
stroke:#000000; stroke-width:59.0551; stroke-opacity:1; 
stroke-linecap:round; stroke-linejoin:round;">
<path d="M62992 4724
L62992 3937
" />
</g>
<g style="fill:#000000; fill-opacity:0.0; 
stroke:#000000; stroke-width:39.3701; stroke-opacity:1; 
stroke-linecap:round; stroke-linejoin:round;">
</g>
<g style="fill:#000000; fill-opacity:0.0; 
stroke:#000000; stroke-width:59.0551; stroke-opacity:1; 
stroke-linecap:round; stroke-linejoin:round;">
<path d="M82677 4724
L82677 3937
" />
</g>
<g style="fill:#000000; fill-opacity:0.0; 
stroke:#000000; stroke-width:39.3701; stroke-opacity:1; 
stroke-linecap:round; stroke-linejoin:round;">
</g>
<g style="fill:#000000; fill-opacity:0.0; 
stroke:#000000; stroke-width:59.0551; stroke-opacity:1; 
stroke-linecap:round; stroke-linejoin:round;">
<path d="M102362 4724
L102362 3937
" />
</g>
<g style="fill:#000000; fill-opacity:0.0; 
stroke:#000000; stroke-width:39.3701; stroke-opacity:1; 
stroke-linecap:round; stroke-linejoin:round;">
</g>
<g style="fill:#000000; fill-opacity:0.0; 
stroke:#000000; stroke-width:59.0551; stroke-opacity:1; 
stroke-linecap:round; stroke-linejoin:round;">
<path d="M14199 4562
L13906 4562
" />
<path d="M14052 4562
L14052 4050
L14004 4123
L13955 4172
L13906 4196
" />
</g>
<g style="fill:#000000; fill-opacity:0.0; 
stroke:#000000; stroke-width:39.3701; stroke-opacity:1; 
stroke-linecap:round; stroke-linejoin:round;">
</g>
<g style="fill:#000000; fill-opacity:0.0; 
stroke:#000000; stroke-width:59.0551; stroke-opacity:1; 
stroke-linecap:round; stroke-linejoin:round;">
<path d="M33591 4099
L33615 4074
L33664 4050
L33786 4050
L33835 4074
L33859 4099
L33884 4147
L33884 4196
L33859 4269
L33567 4562
L33884 4562
" />
</g>
<g style="fill:#000000; fill-opacity:0.0; 
stroke:#000000; stroke-width:39.3701; stroke-opacity:1; 
stroke-linecap:round; stroke-linejoin:round;">
</g>
<g style="fill:#000000; fill-opacity:0.0; 
stroke:#000000; stroke-width:59.0551; stroke-opacity:1; 
stroke-linecap:round; stroke-linejoin:round;">
<path d="M53252 4050
L53569 4050
L53398 4245
L53471 4245
L53520 4269
L53544 4294
L53569 4342
L53569 4464
L53544 4513
L53520 4537
L53471 4562
L53325 4562
L53276 4537
L53252 4513
" />
</g>
<g style="fill:#000000; fill-opacity:0.0; 
stroke:#000000; stroke-width:39.3701; stroke-opacity:1; 
stroke-linecap:round; stroke-linejoin:round;">
</g>
<g style="fill:#000000; fill-opacity:0.0; 
stroke:#000000; stroke-width:59.0551; stroke-opacity:1; 
stroke-linecap:round; stroke-linejoin:round;">
<path d="M73205 4221
L73205 4562
" />
<path d="M73083 4026
L72961 4391
L73278 4391
" />
</g>
<g style="fill:#000000; fill-opacity:0.0; 
stroke:#000000; stroke-width:39.3701; stroke-opacity:1; 
stroke-linecap:round; stroke-linejoin:round;">
</g>
<g style="fill:#000000; fill-opacity:0.0; 
stroke:#000000; stroke-width:59.0551; stroke-opacity:1; 
stroke-linecap:round; stroke-linejoin:round;">
<path d="M92914 4050
L92671 4050
L92646 4294
L92671 4269
L92719 4245
L92841 4245
L92890 4269
L92914 4294
L92939 4342
L92939 4464
L92914 4513
L92890 4537
L92841 4562
L92719 4562
L92671 4537
L92646 4513
" />
</g>
<g style="fill:#000000; fill-opacity:0.0; 
stroke:#000000; stroke-width:39.3701; stroke-opacity:1; 
stroke-linecap:round; stroke-linejoin:round;">
</g>
<g style="fill:#000000; fill-opacity:0.0; 
stroke:#000000; stroke-width:59.0551; stroke-opacity:1; 
stroke-linecap:round; stroke-linejoin:round;">
<path d="M112575 4050
L112477 4050
L112429 4074
L112404 4099
L112356 4172
L112331 4269
L112331 4464
L112356 4513
L112380 4537
L112429 4562
L112526 4562
L112575 4537
L112599 4513
L112624 4464
L112624 4342
L112599 4294
L112575 4269
L112526 4245
L112429 4245
L112380 4269
L112356 4294
L112331 4342
" />
</g>
<g style="fill:#000000; fill-opacity:0.0; 
stroke:#000000; stroke-width:39.3701; stroke-opacity:1; 
stroke-linecap:round; stroke-linejoin:round;">
</g>
<g style="fill:#000000; fill-opacity:0.0; 
stroke:#000000; stroke-width:59.0551; stroke-opacity:1; 
stroke-linecap:round; stroke-linejoin:round;">
<path d="M23622 77955
L23622 78742
" />
</g>
<g style="fill:#000000; fill-opacity:0.0; 
stroke:#000000; stroke-width:39.3701; stroke-opacity:1; 
stroke-linecap:round; stroke-linejoin:round;">
</g>
<g style="fill:#000000; fill-opacity:0.0; 
stroke:#000000; stroke-width:59.0551; stroke-opacity:1; 
stroke-linecap:round; stroke-linejoin:round;">
<path d="M43307 77955
L43307 78742
" />
</g>
<g style="fill:#000000; fill-opacity:0.0; 
stroke:#000000; stroke-width:39.3701; stroke-opacity:1; 
stroke-linecap:round; stroke-linejoin:round;">
</g>
<g style="fill:#000000; fill-opacity:0.0; 
stroke:#000000; stroke-width:59.0551; stroke-opacity:1; 
stroke-linecap:round; stroke-linejoin:round;">
<path d="M62992 77955
L62992 78742
" />
</g>
<g style="fill:#000000; fill-opacity:0.0; 
stroke:#000000; stroke-width:39.3701; stroke-opacity:1; 
stroke-linecap:round; stroke-linejoin:round;">
</g>
<g style="fill:#000000; fill-opacity:0.0; 
stroke:#000000; stroke-width:59.0551; stroke-opacity:1; 
stroke-linecap:round; stroke-linejoin:round;">
<path d="M82677 77955
L82677 78742
" />
</g>
<g style="fill:#000000; fill-opacity:0.0; 
stroke:#000000; stroke-width:39.3701; stroke-opacity:1; 
stroke-linecap:round; stroke-linejoin:round;">
</g>
<g style="fill:#000000; fill-opacity:0.0; 
stroke:#000000; stroke-width:59.0551; stroke-opacity:1; 
stroke-linecap:round; stroke-linejoin:round;">
<path d="M102362 77955
L102362 78742
" />
</g>
<g style="fill:#000000; fill-opacity:0.0; 
stroke:#000000; stroke-width:39.3701; stroke-opacity:1; 
stroke-linecap:round; stroke-linejoin:round;">
</g>
<g style="fill:#000000; fill-opacity:0.0; 
stroke:#000000; stroke-width:59.0551; stroke-opacity:1; 
stroke-linecap:round; stroke-linejoin:round;">
<path d="M14199 78580
L13906 78580
" />
<path d="M14052 78580
L14052 78069
L14004 78142
L13955 78190
L13906 78215
" />
</g>
<g style="fill:#000000; fill-opacity:0.0; 
stroke:#000000; stroke-width:39.3701; stroke-opacity:1; 
stroke-linecap:round; stroke-linejoin:round;">
</g>
<g style="fill:#000000; fill-opacity:0.0; 
stroke:#000000; stroke-width:59.0551; stroke-opacity:1; 
stroke-linecap:round; stroke-linejoin:round;">
<path d="M33591 78117
L33615 78093
L33664 78069
L33786 78069
L33835 78093
L33859 78117
L33884 78166
L33884 78215
L33859 78288
L33567 78580
L33884 78580
" />
</g>
<g style="fill:#000000; fill-opacity:0.0; 
stroke:#000000; stroke-width:39.3701; stroke-opacity:1; 
stroke-linecap:round; stroke-linejoin:round;">
</g>
<g style="fill:#000000; fill-opacity:0.0; 
stroke:#000000; stroke-width:59.0551; stroke-opacity:1; 
stroke-linecap:round; stroke-linejoin:round;">
<path d="M53252 78069
L53569 78069
L53398 78263
L53471 78263
L53520 78288
L53544 78312
L53569 78361
L53569 78483
L53544 78532
L53520 78556
L53471 78580
L53325 78580
L53276 78556
L53252 78532
" />
</g>
<g style="fill:#000000; fill-opacity:0.0; 
stroke:#000000; stroke-width:39.3701; stroke-opacity:1; 
stroke-linecap:round; stroke-linejoin:round;">
</g>
<g style="fill:#000000; fill-opacity:0.0; 
stroke:#000000; stroke-width:59.0551; stroke-opacity:1; 
stroke-linecap:round; stroke-linejoin:round;">
<path d="M73205 78239
L73205 78580
" />
<path d="M73083 78044
L72961 78410
L73278 78410
" />
</g>
<g style="fill:#000000; fill-opacity:0.0; 
stroke:#000000; stroke-width:39.3701; stroke-opacity:1; 
stroke-linecap:round; stroke-linejoin:round;">
</g>
<g style="fill:#000000; fill-opacity:0.0; 
stroke:#000000; stroke-width:59.0551; stroke-opacity:1; 
stroke-linecap:round; stroke-linejoin:round;">
<path d="M92914 78069
L92671 78069
L92646 78312
L92671 78288
L92719 78263
L92841 78263
L92890 78288
L92914 78312
L92939 78361
L92939 78483
L92914 78532
L92890 78556
L92841 78580
L92719 78580
L92671 78556
L92646 78532
" />
</g>
<g style="fill:#000000; fill-opacity:0.0; 
stroke:#000000; stroke-width:39.3701; stroke-opacity:1; 
stroke-linecap:round; stroke-linejoin:round;">
</g>
<g style="fill:#000000; fill-opacity:0.0; 
stroke:#000000; stroke-width:59.0551; stroke-opacity:1; 
stroke-linecap:round; stroke-linejoin:round;">
<path d="M112575 78069
L112477 78069
L112429 78093
L112404 78117
L112356 78190
L112331 78288
L112331 78483
L112356 78532
L112380 78556
L112429 78580
L112526 78580
L112575 78556
L112599 78532
L112624 78483
L112624 78361
L112599 78312
L112575 78288
L112526 78263
L112429 78263
L112380 78288
L112356 78312
L112331 78361
" />
</g>
<g style="fill:#000000; fill-opacity:0.0; 
stroke:#000000; stroke-width:39.3701; stroke-opacity:1; 
stroke-linecap:round; stroke-linejoin:round;">
</g>
<g style="fill:#000000; fill-opacity:0.0; 
stroke:#000000; stroke-width:59.0551; stroke-opacity:1; 
stroke-linecap:round; stroke-linejoin:round;">
<path d="M3937 23622
L4724 23622
" />
</g>
<g style="fill:#000000; fill-opacity:0.0; 
stroke:#000000; stroke-width:39.3701; stroke-opacity:1; 
stroke-linecap:round; stroke-linejoin:round;">
</g>
<g style="fill:#000000; fill-opacity:0.0; 
stroke:#000000; stroke-width:59.0551; stroke-opacity:1; 
stroke-linecap:round; stroke-linejoin:round;">
<path d="M3937 43307
L4724 43307
" />
</g>
<g style="fill:#000000; fill-opacity:0.0; 
stroke:#000000; stroke-width:39.3701; stroke-opacity:1; 
stroke-linecap:round; stroke-linejoin:round;">
</g>
<g style="fill:#000000; fill-opacity:0.0; 
stroke:#000000; stroke-width:59.0551; stroke-opacity:1; 
stroke-linecap:round; stroke-linejoin:round;">
<path d="M3937 62992
L4724 62992
" />
</g>
<g style="fill:#000000; fill-opacity:0.0; 
stroke:#000000; stroke-width:39.3701; stroke-opacity:1; 
stroke-linecap:round; stroke-linejoin:round;">
</g>
<g style="fill:#000000; fill-opacity:0.0; 
stroke:#000000; stroke-width:59.0551; stroke-opacity:1; 
stroke-linecap:round; stroke-linejoin:round;">
<path d="M4208 13864
L4452 13864
" />
<path d="M4160 14011
L4330 13499
L4501 14011
" />
</g>
<g style="fill:#000000; fill-opacity:0.0; 
stroke:#000000; stroke-width:39.3701; stroke-opacity:1; 
stroke-linecap:round; stroke-linejoin:round;">
</g>
<g style="fill:#000000; fill-opacity:0.0; 
stroke:#000000; stroke-width:59.0551; stroke-opacity:1; 
stroke-linecap:round; stroke-linejoin:round;">
<path d="M4367 33428
L4440 33452
L4464 33476
L4489 33525
L4489 33598
L4464 33647
L4440 33671
L4391 33696
L4196 33696
L4196 33184
L4367 33184
L4416 33208
L4440 33233
L4464 33281
L4464 33330
L4440 33379
L4416 33403
L4367 33428
L4196 33428
" />
</g>
<g style="fill:#000000; fill-opacity:0.0; 
stroke:#000000; stroke-width:39.3701; stroke-opacity:1; 
stroke-linecap:round; stroke-linejoin:round;">
</g>
<g style="fill:#000000; fill-opacity:0.0; 
stroke:#000000; stroke-width:59.0551; stroke-opacity:1; 
stroke-linecap:round; stroke-linejoin:round;">
<path d="M4489 53332
L4464 53356
L4391 53381
L4342 53381
L4269 53356
L4221 53308
L4196 53259
L4172 53161
L4172 53088
L4196 52991
L4221 52942
L4269 52893
L4342 52869
L4391 52869
L4464 52893
L4489 52918
" />
</g>
<g style="fill:#000000; fill-opacity:0.0; 
stroke:#000000; stroke-width:39.3701; stroke-opacity:1; 
stroke-linecap:round; stroke-linejoin:round;">
</g>
<g style="fill:#000000; fill-opacity:0.0; 
stroke:#000000; stroke-width:59.0551; stroke-opacity:1; 
stroke-linecap:round; stroke-linejoin:round;">
<path d="M4196 73066
L4196 72554
L4318 72554
L4391 72578
L4440 72627
L4464 72676
L4489 72773
L4489 72846
L4464 72944
L4440 72993
L4391 73041
L4318 73066
L4196 73066
" />
</g>
<g style="fill:#000000; fill-opacity:0.0; 
stroke:#000000; stroke-width:39.3701; stroke-opacity:1; 
stroke-linecap:round; stroke-linejoin:round;">
</g>
<g style="fill:#000000; fill-opacity:0.0; 
stroke:#000000; stroke-width:59.0551; stroke-opacity:1; 
stroke-linecap:round; stroke-linejoin:round;">
<path d="M112992 23622
L112205 23622
" />
</g>
<g style="fill:#000000; fill-opacity:0.0; 
stroke:#000000; stroke-width:39.3701; stroke-opacity:1; 
stroke-linecap:round; stroke-linejoin:round;">
</g>
<g style="fill:#000000; fill-opacity:0.0; 
stroke:#000000; stroke-width:59.0551; stroke-opacity:1; 
stroke-linecap:round; stroke-linejoin:round;">
<path d="M112992 43307
L112205 43307
" />
</g>
<g style="fill:#000000; fill-opacity:0.0; 
stroke:#000000; stroke-width:39.3701; stroke-opacity:1; 
stroke-linecap:round; stroke-linejoin:round;">
</g>
<g style="fill:#000000; fill-opacity:0.0; 
stroke:#000000; stroke-width:59.0551; stroke-opacity:1; 
stroke-linecap:round; stroke-linejoin:round;">
<path d="M112992 62992
L112205 62992
" />
</g>
<g style="fill:#000000; fill-opacity:0.0; 
stroke:#000000; stroke-width:39.3701; stroke-opacity:1; 
stroke-linecap:round; stroke-linejoin:round;">
</g>
<g style="fill:#000000; fill-opacity:0.0; 
stroke:#000000; stroke-width:59.0551; stroke-opacity:1; 
stroke-linecap:round; stroke-linejoin:round;">
<path d="M112477 13864
L112721 13864
" />
<path d="M112428 14011
L112599 13499
L112769 14011
" />
</g>
<g style="fill:#000000; fill-opacity:0.0; 
stroke:#000000; stroke-width:39.3701; stroke-opacity:1; 
stroke-linecap:round; stroke-linejoin:round;">
</g>
<g style="fill:#000000; fill-opacity:0.0; 
stroke:#000000; stroke-width:59.0551; stroke-opacity:1; 
stroke-linecap:round; stroke-linejoin:round;">
<path d="M112635 33428
L112708 33452
L112733 33476
L112757 33525
L112757 33598
L112733 33647
L112708 33671
L112660 33696
L112465 33696
L112465 33184
L112635 33184
L112684 33208
L112708 33233
L112733 33281
L112733 33330
L112708 33379
L112684 33403
L112635 33428
L112465 33428
" />
</g>
<g style="fill:#000000; fill-opacity:0.0; 
stroke:#000000; stroke-width:39.3701; stroke-opacity:1; 
stroke-linecap:round; stroke-linejoin:round;">
</g>
<g style="fill:#000000; fill-opacity:0.0; 
stroke:#000000; stroke-width:59.0551; stroke-opacity:1; 
stroke-linecap:round; stroke-linejoin:round;">
<path d="M112757 53332
L112733 53356
L112660 53381
L112611 53381
L112538 53356
L112489 53308
L112465 53259
L112440 53161
L112440 53088
L112465 52991
L112489 52942
L112538 52893
L112611 52869
L112660 52869
L112733 52893
L112757 52918
" />
</g>
<g style="fill:#000000; fill-opacity:0.0; 
stroke:#000000; stroke-width:39.3701; stroke-opacity:1; 
stroke-linecap:round; stroke-linejoin:round;">
</g>
<g style="fill:#000000; fill-opacity:0.0; 
stroke:#000000; stroke-width:59.0551; stroke-opacity:1; 
stroke-linecap:round; stroke-linejoin:round;">
<path d="M112465 73066
L112465 72554
L112587 72554
L112660 72578
L112708 72627
L112733 72676
L112757 72773
L112757 72846
L112733 72944
L112708 72993
L112660 73041
L112587 73066
L112465 73066
" />
</g>
<g style="fill:#000000; fill-opacity:0.0; 
stroke:#000000; stroke-width:39.3701; stroke-opacity:1; 
stroke-linecap:round; stroke-linejoin:round;">
</g>
<g style="fill:#000000; fill-opacity:0.0; 
stroke:#000000; stroke-width:59.0551; stroke-opacity:1; 
stroke-linecap:round; stroke-linejoin:round;">
<path d="M78911 76293
L78911 75703
L79051 75703
L79136 75731
L79192 75787
L79220 75843
L79248 75956
L79248 76040
L79220 76153
L79192 76209
L79136 76265
L79051 76293
L78911 76293
" />
<path d="M79754 76293
L79754 75984
L79726 75928
L79670 75899
L79557 75899
L79501 75928
" />
<path d="M79754 76265
L79698 76293
L79557 76293
L79501 76265
L79473 76209
L79473 76153
L79501 76096
L79557 76068
L79698 76068
L79754 76040
" />
<path d="M79951 75899
L80176 75899
" />
<path d="M80036 75703
L80036 76209
L80064 76265
L80120 76293
L80176 76293
" />
<path d="M80598 76265
L80542 76293
L80429 76293
L80373 76265
L80345 76209
L80345 75984
L80373 75928
L80429 75899
L80542 75899
L80598 75928
L80626 75984
L80626 76040
L80345 76096
" />
<path d="M80879 76237
L80907 76265
L80879 76293
L80851 76265
L80879 76237
L80879 76293
" />
<path d="M80879 75928
L80907 75956
L80879 75984
L80851 75956
L80879 75928
L80879 75984
" />
</g>
<g style="fill:#000000; fill-opacity:0.0; 
stroke:#000000; stroke-width:39.3701; stroke-opacity:1; 
stroke-linecap:round; stroke-linejoin:round;">
</g>
<g style="fill:#000000; fill-opacity:0.0; 
stroke:#000000; stroke-width:59.0551; stroke-opacity:1; 
stroke-linecap:round; stroke-linejoin:round;">
<path d="M69685 76577
L112205 76577
" />
</g>
<g style="fill:#000000; fill-opacity:0.0; 
stroke:#000000; stroke-width:39.3701; stroke-opacity:1; 
stroke-linecap:round; stroke-linejoin:round;">
</g>
<g style="fill:#000000; fill-opacity:0.0; 
stroke:#000000; stroke-width:59.0551; stroke-opacity:1; 
stroke-linecap:round; stroke-linejoin:round;">
<path d="M70249 77395
L70249 76805
" />
<path d="M70587 77395
L70334 77058
" />
<path d="M70587 76805
L70249 77142
" />
<path d="M70840 77395
L70840 77002
" />
<path d="M70840 76805
L70812 76833
L70840 76861
L70868 76833
L70840 76805
L70840 76861
" />
<path d="M71458 77339
L71430 77367
L71346 77395
L71290 77395
L71205 77367
L71149 77311
L71121 77255
L71093 77142
L71093 77058
L71121 76946
L71149 76889
L71205 76833
L71290 76805
L71346 76805
L71430 76833
L71458 76861
" />
<path d="M71965 77395
L71965 77086
L71937 77030
L71880 77002
L71768 77002
L71712 77030
" />
<path d="M71965 77367
L71908 77395
L71768 77395
L71712 77367
L71683 77311
L71683 77255
L71712 77199
L71768 77171
L71908 77171
L71965 77142
" />
<path d="M72499 77395
L72499 76805
" />
<path d="M72499 77367
L72443 77395
L72330 77395
L72274 77367
L72246 77339
L72218 77283
L72218 77114
L72246 77058
L72274 77030
L72330 77002
L72443 77002
L72499 77030
" />
<path d="M73230 77086
L73427 77086
" />
<path d="M73511 77395
L73230 77395
L73230 76805
L73511 76805
" />
<path d="M73764 77339
L73793 77367
L73764 77395
L73736 77367
L73764 77339
L73764 77395
" />
<path d="M74046 77395
L74046 76805
L74186 76805
L74271 76833
L74327 76889
L74355 76946
L74383 77058
L74383 77142
L74355 77255
L74327 77311
L74271 77367
L74186 77395
L74046 77395
" />
<path d="M74636 77339
L74664 77367
L74636 77395
L74608 77367
L74636 77339
L74636 77395
" />
<path d="M74889 77227
L75171 77227
" />
<path d="M74833 77395
L75030 76805
L75227 77395
" />
<path d="M75424 77339
L75452 77367
L75424 77395
L75395 77367
L75424 77339
L75424 77395
" />
<path d="M76605 77395
L76605 76805
" />
<path d="M76661 77171
L76830 77395
" />
<path d="M76830 77002
L76605 77227
" />
<path d="M77083 77395
L77083 77002
" />
<path d="M77083 76805
L77055 76833
L77083 76861
L77111 76833
L77083 76805
L77083 76861
" />
<path d="M77617 77367
L77561 77395
L77448 77395
L77392 77367
L77364 77339
L77336 77283
L77336 77114
L77364 77058
L77392 77030
L77448 77002
L77561 77002
L77617 77030
" />
<path d="M78123 77395
L78123 77086
L78095 77030
L78039 77002
L77926 77002
L77870 77030
" />
<path d="M78123 77367
L78067 77395
L77926 77395
L77870 77367
L77842 77311
L77842 77255
L77870 77199
L77926 77171
L78067 77171
L78123 77142
" />
<path d="M78658 77395
L78658 76805
" />
<path d="M78658 77367
L78601 77395
L78489 77395
L78433 77367
L78404 77339
L78376 77283
L78376 77114
L78404 77058
L78433 77030
L78489 77002
L78601 77002
L78658 77030
" />
<path d="M79557 77620
L79529 77592
L79473 77508
L79445 77452
L79417 77367
L79389 77227
L79389 77114
L79417 76974
L79445 76889
L79473 76833
L79529 76749
L79557 76721
" />
<path d="M80064 76805
L79782 76805
L79754 77086
L79782 77058
L79839 77030
L79979 77030
L80036 77058
L80064 77086
L80092 77142
L80092 77283
L80064 77339
L80036 77367
L79979 77395
L79839 77395
L79782 77367
L79754 77339
" />
<path d="M80345 77339
L80373 77367
L80345 77395
L80317 77367
L80345 77339
L80345 77395
" />
<path d="M80739 76805
L80795 76805
L80851 76833
L80879 76861
L80907 76917
L80935 77030
L80935 77171
L80907 77283
L80879 77339
L80851 77367
L80795 77395
L80739 77395
L80682 77367
L80654 77339
L80626 77283
L80598 77171
L80598 77030
L80626 76917
L80654 76861
L80682 76833
L80739 76805
" />
<path d="M81188 77339
L81217 77367
L81188 77395
L81160 77367
L81188 77339
L81188 77395
" />
<path d="M81582 76805
L81638 76805
L81695 76833
L81723 76861
L81751 76917
L81779 77030
L81779 77171
L81751 77283
L81723 77339
L81695 77367
L81638 77395
L81582 77395
L81526 77367
L81498 77339
L81470 77283
L81442 77171
L81442 77030
L81470 76917
L81498 76861
L81526 76833
L81582 76805
" />
<path d="M82032 77171
L82482 77171
" />
<path d="M82763 77395
L82763 77002
" />
<path d="M82763 77114
L82791 77058
L82820 77030
L82876 77002
L82932 77002
" />
<path d="M83382 77367
L83326 77395
L83213 77395
L83157 77367
L83129 77339
L83101 77283
L83101 77114
L83129 77058
L83157 77030
L83213 77002
L83326 77002
L83382 77030
" />
<path d="M83607 76861
L83635 76833
L83691 76805
L83832 76805
L83888 76833
L83916 76861
L83944 76917
L83944 76974
L83916 77058
L83579 77395
L83944 77395
" />
<path d="M84197 77171
L84647 77171
" />
<path d="M85182 77395
L85182 76805
" />
<path d="M85182 77367
L85126 77395
L85013 77395
L84957 77367
L84929 77339
L84901 77283
L84901 77114
L84929 77058
L84957 77030
L85013 77002
L85126 77002
L85182 77030
" />
<path d="M85688 77367
L85632 77395
L85519 77395
L85463 77367
L85435 77311
L85435 77086
L85463 77030
L85519 77002
L85632 77002
L85688 77030
L85716 77086
L85716 77142
L85435 77199
" />
<path d="M85913 77002
L86054 77395
L86194 77002
" />
<path d="M86419 77171
L86869 77171
" />
<path d="M87403 76805
L87291 76805
L87235 76833
L87206 76861
L87150 76946
L87122 77058
L87122 77283
L87150 77339
L87178 77367
L87235 77395
L87347 77395
L87403 77367
L87431 77339
L87460 77283
L87460 77142
L87431 77086
L87403 77058
L87347 77030
L87235 77030
L87178 77058
L87150 77086
L87122 77142
" />
<path d="M87825 76805
L87881 76805
L87938 76833
L87966 76861
L87994 76917
L88022 77030
L88022 77171
L87994 77283
L87966 77339
L87938 77367
L87881 77395
L87825 77395
L87769 77367
L87741 77339
L87713 77283
L87685 77171
L87685 77030
L87713 76917
L87741 76861
L87769 76833
L87825 76805
" />
<path d="M88219 76805
L88584 76805
L88388 77030
L88472 77030
L88528 77058
L88556 77086
L88584 77142
L88584 77283
L88556 77339
L88528 77367
L88472 77395
L88303 77395
L88247 77367
L88219 77339
" />
<path d="M88838 77171
L89287 77171
" />
<path d="M89822 77002
L89822 77480
L89794 77536
L89766 77564
L89709 77592
L89625 77592
L89569 77564
" />
<path d="M89822 77367
L89766 77395
L89653 77395
L89597 77367
L89569 77339
L89541 77283
L89541 77114
L89569 77058
L89597 77030
L89653 77002
L89766 77002
L89822 77030
" />
<path d="M90384 76805
L90103 76805
L90075 77086
L90103 77058
L90159 77030
L90300 77030
L90356 77058
L90384 77086
L90412 77142
L90412 77283
L90384 77339
L90356 77367
L90300 77395
L90159 77395
L90103 77367
L90075 77339
" />
<path d="M90919 77395
L90919 77086
L90890 77030
L90834 77002
L90722 77002
L90665 77030
" />
<path d="M90919 77367
L90862 77395
L90722 77395
L90665 77367
L90637 77311
L90637 77255
L90665 77199
L90722 77171
L90862 77171
L90919 77142
" />
<path d="M91312 76805
L91368 76805
L91425 76833
L91453 76861
L91481 76917
L91509 77030
L91509 77171
L91481 77283
L91453 77339
L91425 77367
L91368 77395
L91312 77395
L91256 77367
L91228 77339
L91200 77283
L91172 77171
L91172 77030
L91200 76917
L91228 76861
L91256 76833
L91312 76805
" />
<path d="M92043 76805
L91762 76805
L91734 77086
L91762 77058
L91818 77030
L91959 77030
L92015 77058
L92043 77086
L92072 77142
L92072 77283
L92043 77339
L92015 77367
L91959 77395
L91818 77395
L91762 77367
L91734 77339
" />
<path d="M92634 77395
L92296 77395
" />
<path d="M92465 77395
L92465 76805
L92409 76889
L92353 76946
L92296 76974
" />
<path d="M92831 76805
L93196 76805
L93000 77030
L93084 77030
L93140 77058
L93168 77086
L93196 77142
L93196 77283
L93168 77339
L93140 77367
L93084 77395
L92915 77395
L92859 77367
L92831 77339
" />
<path d="M93731 76805
L93449 76805
L93421 77086
L93449 77058
L93506 77030
L93646 77030
L93703 77058
L93731 77086
L93759 77142
L93759 77283
L93731 77339
L93703 77367
L93646 77395
L93506 77395
L93449 77367
L93421 77339
" />
<path d="M93956 77620
L93984 77592
L94040 77508
L94068 77452
L94096 77367
L94124 77227
L94124 77114
L94096 76974
L94068 76889
L94040 76833
L93984 76749
L93956 76721
" />
</g>
<g style="fill:#000000; fill-opacity:0.0; 
stroke:#000000; stroke-width:39.3701; stroke-opacity:1; 
stroke-linecap:round; stroke-linejoin:round;">
</g>
<g style="fill:#000000; fill-opacity:0.0; 
stroke:#000000; stroke-width:59.0551; stroke-opacity:1; 
stroke-linecap:round; stroke-linejoin:round;">
<path d="M69685 75396
L112205 75396
" />
</g>
<g style="fill:#000000; fill-opacity:0.0; 
stroke:#000000; stroke-width:39.3701; stroke-opacity:1; 
stroke-linecap:round; stroke-linejoin:round;">
</g>
<g style="fill:#000000; fill-opacity:0.0; 
stroke:#000000; stroke-width:118.11; stroke-opacity:1; 
stroke-linecap:round; stroke-linejoin:round;">
<path d="M104099 76293
L103902 76012
" />
<path d="M103761 76293
L103761 75703
L103986 75703
L104042 75731
L104070 75759
L104099 75815
L104099 75899
L104070 75956
L104042 75984
L103986 76012
L103761 76012
" />
<path d="M104577 76265
L104520 76293
L104408 76293
L104352 76265
L104323 76209
L104323 75984
L104352 75928
L104408 75899
L104520 75899
L104577 75928
L104605 75984
L104605 76040
L104323 76096
" />
<path d="M104802 75899
L104942 76293
L105083 75899
" />
<path d="M105308 76237
L105336 76265
L105308 76293
L105280 76265
L105308 76237
L105308 76293
" />
<path d="M105308 75928
L105336 75956
L105308 75984
L105280 75956
L105308 75928
L105308 75984
" />
</g>
<g style="fill:#000000; fill-opacity:0.0; 
stroke:#000000; stroke-width:39.3701; stroke-opacity:1; 
stroke-linecap:round; stroke-linejoin:round;">
</g>
<g style="fill:#000000; fill-opacity:0.0; 
stroke:#000000; stroke-width:59.0551; stroke-opacity:1; 
stroke-linecap:round; stroke-linejoin:round;">
<path d="M70221 76265
L70305 76293
L70446 76293
L70502 76265
L70530 76237
L70559 76181
L70559 76124
L70530 76068
L70502 76040
L70446 76012
L70334 75984
L70277 75956
L70249 75928
L70221 75871
L70221 75815
L70249 75759
L70277 75731
L70334 75703
L70474 75703
L70559 75731
" />
<path d="M70812 76293
L70812 75899
" />
<path d="M70812 75703
L70784 75731
L70812 75759
L70840 75731
L70812 75703
L70812 75759
" />
<path d="M71037 75899
L71346 75899
L71037 76293
L71346 76293
" />
<path d="M71796 76265
L71740 76293
L71627 76293
L71571 76265
L71543 76209
L71543 75984
L71571 75928
L71627 75899
L71740 75899
L71796 75928
L71824 75984
L71824 76040
L71543 76096
" />
<path d="M72077 76237
L72105 76265
L72077 76293
L72049 76265
L72077 76237
L72077 76293
" />
<path d="M72077 75928
L72105 75956
L72077 75984
L72049 75956
L72077 75928
L72077 75984
" />
<path d="M72780 76124
L73061 76124
" />
<path d="M72724 76293
L72921 75703
L73118 76293
" />
<path d="M73568 75899
L73568 76293
" />
<path d="M73427 75674
L73286 76096
L73652 76096
" />
</g>
<g style="fill:#000000; fill-opacity:0.0; 
stroke:#000000; stroke-width:39.3701; stroke-opacity:1; 
stroke-linecap:round; stroke-linejoin:round;">
</g>
<g style="fill:#000000; fill-opacity:0.0; 
stroke:#000000; stroke-width:59.0551; stroke-opacity:1; 
stroke-linecap:round; stroke-linejoin:round;">
<path d="M103714 77395
L103714 76805
" />
<path d="M104248 77395
L104248 76805
" />
<path d="M104248 77367
L104192 77395
L104079 77395
L104023 77367
L103995 77339
L103967 77283
L103967 77114
L103995 77058
L104023 77030
L104079 77002
L104192 77002
L104248 77030
" />
<path d="M104529 77339
L104557 77367
L104529 77395
L104501 77367
L104529 77339
L104529 77395
" />
<path d="M104529 77030
L104557 77058
L104529 77086
L104501 77058
L104529 77030
L104529 77086
" />
<path d="M105570 77395
L105232 77395
" />
<path d="M105401 77395
L105401 76805
L105345 76889
L105289 76946
L105232 76974
" />
<path d="M106245 76777
L105739 77536
" />
<path d="M106751 77395
L106413 77395
" />
<path d="M106582 77395
L106582 76805
L106526 76889
L106470 76946
L106413 76974
" />
</g>
<g style="fill:#000000; fill-opacity:0.0; 
stroke:#000000; stroke-width:39.3701; stroke-opacity:1; 
stroke-linecap:round; stroke-linejoin:round;">
</g>
<g style="fill:#000000; fill-opacity:0.0; 
stroke:#000000; stroke-width:59.0551; stroke-opacity:1; 
stroke-linecap:round; stroke-linejoin:round;">
<path d="M69685 73821
L112205 73821
" />
</g>
<g style="fill:#000000; fill-opacity:0.0; 
stroke:#000000; stroke-width:39.3701; stroke-opacity:1; 
stroke-linecap:round; stroke-linejoin:round;">
</g>
<g style="fill:#000000; fill-opacity:0.0; 
stroke:#000000; stroke-width:157.48; stroke-opacity:1; 
stroke-linecap:round; stroke-linejoin:round;">
<path d="M70360 74099
L70810 74099
" />
<path d="M70486 74886
L70585 74099
" />
<path d="M70974 74886
L71039 74361
" />
<path d="M71072 74099
L71030 74136
L71063 74174
L71105 74136
L71072 74099
L71063 74174
" />
<path d="M71302 74361
L71602 74361
" />
<path d="M71447 74099
L71363 74774
L71391 74849
L71461 74886
L71536 74886
" />
<path d="M71911 74886
L71841 74849
L71813 74774
L71897 74099
" />
<path d="M72516 74849
L72436 74886
L72286 74886
L72216 74849
L72187 74774
L72225 74474
L72272 74399
L72352 74361
L72501 74361
L72572 74399
L72600 74474
L72591 74549
L72206 74624
" />
<path d="M72895 74811
L72928 74849
L72886 74886
L72853 74849
L72895 74811
L72886 74886
" />
<path d="M72947 74399
L72980 74436
L72937 74474
L72905 74436
L72947 74399
L72937 74474
" />
</g>
<g style="fill:#000000; fill-opacity:0.0; 
stroke:#000000; stroke-width:39.3701; stroke-opacity:1; 
stroke-linecap:round; stroke-linejoin:round;">
</g>
<g style="fill:#000000; fill-opacity:0.0; 
stroke:#000000; stroke-width:59.0551; stroke-opacity:1; 
stroke-linecap:round; stroke-linejoin:round;">
<path d="M70446 73070
L70249 73070
" />
<path d="M70249 73380
L70249 72789
L70530 72789
" />
<path d="M70755 73380
L70755 72986
" />
<path d="M70755 72789
L70727 72817
L70755 72845
L70784 72817
L70755 72789
L70755 72845
" />
<path d="M71121 73380
L71065 73352
L71037 73295
L71037 72789
" />
<path d="M71571 73352
L71515 73380
L71402 73380
L71346 73352
L71318 73295
L71318 73070
L71346 73014
L71402 72986
L71515 72986
L71571 73014
L71599 73070
L71599 73127
L71318 73183
" />
<path d="M71852 73323
L71880 73352
L71852 73380
L71824 73352
L71852 73323
L71852 73380
" />
<path d="M71852 73014
L71880 73042
L71852 73070
L71824 73042
L71852 73014
L71852 73070
" />
<path d="M72836 73352
L72780 73380
L72668 73380
L72611 73352
L72583 73323
L72555 73267
L72555 73099
L72583 73042
L72611 73014
L72668 72986
L72780 72986
L72836 73014
" />
<path d="M73090 73380
L73090 72789
" />
<path d="M73343 73380
L73343 73070
L73314 73014
L73258 72986
L73174 72986
L73118 73014
L73090 73042
" />
<path d="M73877 73380
L73877 73070
L73849 73014
L73793 72986
L73680 72986
L73624 73014
" />
<path d="M73877 73352
L73821 73380
L73680 73380
L73624 73352
L73596 73295
L73596 73239
L73624 73183
L73680 73155
L73821 73155
L73877 73127
" />
<path d="M74158 73380
L74158 72986
" />
<path d="M74158 72789
L74130 72817
L74158 72845
L74186 72817
L74158 72789
L74158 72845
" />
<path d="M74439 72986
L74439 73380
" />
<path d="M74439 73042
L74467 73014
L74524 72986
L74608 72986
L74664 73014
L74692 73070
L74692 73380
" />
<path d="M74974 73155
L75424 73155
" />
<path d="M75705 73380
L75705 72986
" />
<path d="M75705 72789
L75677 72817
L75705 72845
L75733 72817
L75705 72789
L75705 72845
" />
<path d="M75902 72986
L76127 72986
" />
<path d="M75986 72789
L75986 73295
L76014 73352
L76070 73380
L76127 73380
" />
<path d="M76548 73352
L76492 73380
L76380 73380
L76323 73352
L76295 73295
L76295 73070
L76323 73014
L76380 72986
L76492 72986
L76548 73014
L76577 73070
L76577 73127
L76295 73183
" />
<path d="M76830 73380
L76830 72986
" />
<path d="M76830 73042
L76858 73014
L76914 72986
L76998 72986
L77055 73014
L77083 73070
L77083 73380
" />
<path d="M77083 73070
L77111 73014
L77167 72986
L77251 72986
L77308 73014
L77336 73070
L77336 73380
" />
<path d="M77617 73323
L77645 73352
L77617 73380
L77589 73352
L77617 73323
L77617 73380
" />
<path d="M77898 73380
L77898 72789
" />
<path d="M77955 73155
L78123 73380
" />
<path d="M78123 72986
L77898 73211
" />
<path d="M78376 73380
L78376 72986
" />
<path d="M78376 72789
L78348 72817
L78376 72845
L78404 72817
L78376 72789
L78376 72845
" />
<path d="M78911 73352
L78854 73380
L78742 73380
L78686 73352
L78658 73323
L78629 73267
L78629 73099
L78658 73042
L78686 73014
L78742 72986
L78854 72986
L78911 73014
" />
<path d="M79417 73380
L79417 73070
L79389 73014
L79332 72986
L79220 72986
L79164 73014
" />
<path d="M79417 73352
L79361 73380
L79220 73380
L79164 73352
L79136 73295
L79136 73239
L79164 73183
L79220 73155
L79361 73155
L79417 73127
" />
<path d="M79951 73380
L79951 72789
" />
<path d="M79951 73352
L79895 73380
L79782 73380
L79726 73352
L79698 73323
L79670 73267
L79670 73099
L79698 73042
L79726 73014
L79782 72986
L79895 72986
L79951 73014
" />
<path d="M80092 73436
L80542 73436
" />
<path d="M80682 72986
L80682 73577
" />
<path d="M80682 73014
L80739 72986
L80851 72986
L80907 73014
L80935 73042
L80964 73099
L80964 73267
L80935 73323
L80907 73352
L80851 73380
L80739 73380
L80682 73352
" />
<path d="M81470 73352
L81413 73380
L81301 73380
L81245 73352
L81217 73323
L81188 73267
L81188 73099
L81217 73042
L81245 73014
L81301 72986
L81413 72986
L81470 73014
" />
<path d="M81723 73380
L81723 72789
" />
<path d="M81723 73014
L81779 72986
L81892 72986
L81948 73014
L81976 73042
L82004 73099
L82004 73267
L81976 73323
L81948 73352
L81892 73380
L81779 73380
L81723 73352
" />
</g>
<g style="fill:#000000; fill-opacity:0.0; 
stroke:#000000; stroke-width:39.3701; stroke-opacity:1; 
stroke-linecap:round; stroke-linejoin:round;">
</g>
<g style="fill:#000000; fill-opacity:0.0; 
stroke:#000000; stroke-width:59.0551; stroke-opacity:1; 
stroke-linecap:round; stroke-linejoin:round;">
<path d="M69685 71459
L112205 71459
" />
</g>
<g style="fill:#000000; fill-opacity:0.0; 
stroke:#000000; stroke-width:39.3701; stroke-opacity:1; 
stroke-linecap:round; stroke-linejoin:round;">
</g>
<g style="fill:#000000; fill-opacity:0.0; 
stroke:#000000; stroke-width:59.0551; stroke-opacity:1; 
stroke-linecap:round; stroke-linejoin:round;">
<path d="M70221 72289
L70305 72317
L70446 72317
L70502 72289
L70530 72260
L70559 72204
L70559 72148
L70530 72092
L70502 72064
L70446 72036
L70334 72007
L70277 71979
L70249 71951
L70221 71895
L70221 71839
L70249 71782
L70277 71754
L70334 71726
L70474 71726
L70559 71754
" />
<path d="M70812 72317
L70812 71726
" />
<path d="M71065 72317
L71065 72007
L71037 71951
L70980 71923
L70896 71923
L70840 71951
L70812 71979
" />
<path d="M71571 72289
L71515 72317
L71402 72317
L71346 72289
L71318 72232
L71318 72007
L71346 71951
L71402 71923
L71515 71923
L71571 71951
L71599 72007
L71599 72064
L71318 72120
" />
<path d="M72077 72289
L72021 72317
L71908 72317
L71852 72289
L71824 72232
L71824 72007
L71852 71951
L71908 71923
L72021 71923
L72077 71951
L72105 72007
L72105 72064
L71824 72120
" />
<path d="M72274 71923
L72499 71923
" />
<path d="M72358 71726
L72358 72232
L72386 72289
L72443 72317
L72499 72317
" />
<path d="M72696 72260
L72724 72289
L72696 72317
L72668 72289
L72696 72260
L72696 72317
" />
<path d="M72696 71951
L72724 71979
L72696 72007
L72668 71979
L72696 71951
L72696 72007
" />
</g>
<g style="fill:#000000; fill-opacity:0.0; 
stroke:#000000; stroke-width:39.3701; stroke-opacity:1; 
stroke-linecap:round; stroke-linejoin:round;">
</g>
<g style="fill:#000000; fill-opacity:0.0; 
stroke:#000000; stroke-width:59.0551; stroke-opacity:1; 
stroke-linecap:round; stroke-linejoin:round;">
<path d="M77559 75396
L77559 76577
" />
</g>
<g style="fill:#000000; fill-opacity:0.0; 
stroke:#000000; stroke-width:39.3701; stroke-opacity:1; 
stroke-linecap:round; stroke-linejoin:round;">
</g>
<g style="fill:#000000; fill-opacity:0.0; 
stroke:#000000; stroke-width:59.0551; stroke-opacity:1; 
stroke-linecap:round; stroke-linejoin:round;">
<path d="M102756 75396
L102756 77955
" />
</g>
<g style="fill:#008400; fill-opacity:0.0; 
stroke:#008400; stroke-width:59.0551; stroke-opacity:1; 
stroke-linecap:round; stroke-linejoin:round;">
</g>
<g style="fill:#008400; fill-opacity:0.0; 
stroke:#008400; stroke-width:0; stroke-opacity:1; 
stroke-linecap:round; stroke-linejoin:round;">
</g>
<g style="fill:#008400; fill-opacity:1.0; 
stroke:#008400; stroke-width:0; stroke-opacity:1; 
stroke-linecap:round; stroke-linejoin:round;">
<polyline style="fill-rule:evenodd;"
points="28409,42334
28409,41665
28842,41665
28842,42334
28409,42334
" /> 
<polyline style="fill-rule:evenodd;"
points="29157,42334
29157,41665
29590,41665
29590,42334
29157,42334
" /> 
</g>
<g style="fill:#848400; fill-opacity:1.0; 
stroke:#848400; stroke-width:0; stroke-opacity:1; 
stroke-linecap:round; stroke-linejoin:round;">
<circle cx="24100" cy="55600" r="511.811" /> 
</g>
<g style="fill:#848400; fill-opacity:1.0; 
stroke:#848400; stroke-width:39.3701; stroke-opacity:1; 
stroke-linecap:round; stroke-linejoin:round;">
</g>
<g style="fill:#848400; fill-opacity:1.0; 
stroke:#848400; stroke-width:0; stroke-opacity:1; 
stroke-linecap:round; stroke-linejoin:round;">
<circle cx="24100" cy="42100" r="511.811" /> 
</g>
<g style="fill:#848400; fill-opacity:1.0; 
stroke:#848400; stroke-width:39.3701; stroke-opacity:1; 
stroke-linecap:round; stroke-linejoin:round;">
</g>
<g style="fill:#848400; fill-opacity:1.0; 
stroke:#848400; stroke-width:0; stroke-opacity:1; 
stroke-linecap:round; stroke-linejoin:round;">
<circle cx="33600" cy="55600" r="511.811" /> 
</g>
<g style="fill:#848400; fill-opacity:1.0; 
stroke:#848400; stroke-width:39.3701; stroke-opacity:1; 
stroke-linecap:round; stroke-linejoin:round;">
</g>
<g style="fill:#848400; fill-opacity:1.0; 
stroke:#848400; stroke-width:0; stroke-opacity:1; 
stroke-linecap:round; stroke-linejoin:round;">
<circle cx="33700" cy="42100" r="511.811" /> 
</g>
<g style="fill:#848400; fill-opacity:1.0; 
stroke:#848400; stroke-width:39.3701; stroke-opacity:1; 
stroke-linecap:round; stroke-linejoin:round;">
</g>
<g style="fill:#848400; fill-opacity:1.0; 
stroke:#848400; stroke-width:837.48; stroke-opacity:1; 
stroke-linecap:round; stroke-linejoin:round;">
</g>
<g style="fill:#848400; fill-opacity:0.0; 
stroke:#848400; stroke-width:837.48; stroke-opacity:1; 
stroke-linecap:round; stroke-linejoin:round;">
<path d="M34160 46700
L34040 46700
" />
<path d="M34160 47700
L34040 47700
" />
<path d="M34160 48700
L34040 48700
" />
</g>
<g style="fill:#848400; fill-opacity:0.0; 
stroke:#848400; stroke-width:0; stroke-opacity:1; 
stroke-linecap:round; stroke-linejoin:round;">
</g>
<g style="fill:#848400; fill-opacity:1.0; 
stroke:#848400; stroke-width:0; stroke-opacity:1; 
stroke-linecap:round; stroke-linejoin:round;">
<polyline style="fill-rule:evenodd;"
points="34578,49281
34578,50118
33621,50118
33621,49281
34578,49281
" /> 
<polyline style="fill-rule:evenodd;"
points="24278,49281
24278,50118
23321,50118
23321,49281
24278,49281
" /> 
</g>
<g style="fill:#848400; fill-opacity:1.0; 
stroke:#848400; stroke-width:837.48; stroke-opacity:1; 
stroke-linecap:round; stroke-linejoin:round;">
</g>
<g style="fill:#848400; fill-opacity:0.0; 
stroke:#848400; stroke-width:837.48; stroke-opacity:1; 
stroke-linecap:round; stroke-linejoin:round;">
<path d="M23860 48700
L23740 48700
" />
<path d="M23860 47700
L23740 47700
" />
<path d="M23860 46700
L23740 46700
" />
</g>
<g style="fill:#848400; fill-opacity:0.0; 
stroke:#848400; stroke-width:0; stroke-opacity:1; 
stroke-linecap:round; stroke-linejoin:round;">
</g>
<g style="fill:#848400; fill-opacity:1.0; 
stroke:#848400; stroke-width:0; stroke-opacity:1; 
stroke-linecap:round; stroke-linejoin:round;">
<polyline style="fill-rule:evenodd;"
points="28381,46618
28381,45581
29418,45581
29418,46618
28381,46618
" /> 
<polyline style="fill-rule:evenodd;"
points="28381,48918
28381,47881
29418,47881
29418,48918
28381,48918
" /> 
</g>
<g style="fill:#848400; fill-opacity:1.0; 
stroke:#848400; stroke-width:826.772; stroke-opacity:1; 
stroke-linecap:round; stroke-linejoin:round;">
</g>
<g style="fill:#848400; fill-opacity:0.0; 
stroke:#848400; stroke-width:826.772; stroke-opacity:1; 
stroke-linecap:round; stroke-linejoin:round;">
<path d="M23800 51400
L23800 51400
" />
<path d="M24800 51400
L24800 51400
" />
<path d="M23800 52400
L23800 52400
" />
<path d="M24800 52400
L24800 52400
" />
<path d="M23800 53400
L23800 53400
" />
</g>
<g style="fill:#848400; fill-opacity:0.0; 
stroke:#848400; stroke-width:0; stroke-opacity:1; 
stroke-linecap:round; stroke-linejoin:round;">
</g>
<g style="fill:#848400; fill-opacity:1.0; 
stroke:#848400; stroke-width:0; stroke-opacity:1; 
stroke-linecap:round; stroke-linejoin:round;">
<polyline style="fill-rule:evenodd;"
points="25213,52986
25213,53813
24386,53813
24386,52986
25213,52986
" /> 
</g>
<g style="fill:#000000; fill-opacity:1.0; 
stroke:#000000; stroke-width:0; stroke-opacity:1; 
stroke-linecap:round; stroke-linejoin:round;">
</g>
<g style="fill:#840000; fill-opacity:1.0; 
stroke:#840000; stroke-width:0; stroke-opacity:1; 
stroke-linecap:round; stroke-linejoin:round;">
<circle cx="30100" cy="41958.1" r="590.551" /> 
</g>
<g style="fill:#840000; fill-opacity:1.0; 
stroke:#840000; stroke-width:39.3701; stroke-opacity:1; 
stroke-linecap:round; stroke-linejoin:round;">
</g>
<g style="fill:#840000; fill-opacity:1.0; 
stroke:#840000; stroke-width:0; stroke-opacity:1; 
stroke-linecap:round; stroke-linejoin:round;">
<circle cx="27805" cy="41958.1" r="590.551" /> 
</g>
<g style="fill:#840000; fill-opacity:1.0; 
stroke:#840000; stroke-width:39.3701; stroke-opacity:1; 
stroke-linecap:round; stroke-linejoin:round;">
</g>
<g style="fill:#840000; fill-opacity:1.0; 
stroke:#840000; stroke-width:0; stroke-opacity:1; 
stroke-linecap:round; stroke-linejoin:round;">
<polyline style="fill-rule:evenodd;"
points="27846,52590
27353,52590
27353,52196
27846,52196
27846,52590
" /> 
<polyline style="fill-rule:evenodd;"
points="27846,51803
27353,51803
27353,51409
27846,51409
27846,51803
" /> 
<polyline style="fill-rule:evenodd;"
points="27546,53903
27053,53903
27053,53509
27546,53509
27546,53903
" /> 
<polyline style="fill-rule:evenodd;"
points="27546,54690
27053,54690
27053,54296
27546,54296
27546,54690
" /> 
<polyline style="fill-rule:evenodd;"
points="30399,54533
30399,54926
29769,54926
29769,54533
30399,54533
" /> 
<polyline style="fill-rule:evenodd;"
points="30399,53273
30399,53666
29769,53666
29769,53273
30399,53273
" /> 
<polyline style="fill-rule:evenodd;"
points="28430,54533
28430,54926
27800,54926
27800,54533
28430,54533
" /> 
<polyline style="fill-rule:evenodd;"
points="28430,53273
28430,53666
27800,53666
27800,53273
28430,53273
" /> 
<polyline style="fill-rule:evenodd;"
points="30044,52236
30555,52236
30555,52511
30044,52511
30044,52236
" /> 
<polyline style="fill-rule:evenodd;"
points="30044,51488
30555,51488
30555,51763
30044,51763
30044,51488
" /> 
<polyline style="fill-rule:evenodd;"
points="28675,51872
28675,52127
28258,52127
28258,51872
28675,51872
" /> 
<polyline style="fill-rule:evenodd;"
points="28675,52246
28675,52501
28258,52501
28258,52246
28675,52246
" /> 
<polyline style="fill-rule:evenodd;"
points="28675,51498
28675,51753
28258,51753
28258,51498
28675,51498
" /> 
<polyline style="fill-rule:evenodd;"
points="29541,51498
29541,51753
29124,51753
29124,51498
29541,51498
" /> 
<polyline style="fill-rule:evenodd;"
points="29541,51872
29541,52127
29124,52127
29124,51872
29541,51872
" /> 
<polyline style="fill-rule:evenodd;"
points="29541,52246
29541,52501
29124,52501
29124,52246
29541,52246
" /> 
</g>
<g style="fill:#000000; fill-opacity:1.0; 
stroke:#000000; stroke-width:0; stroke-opacity:1; 
stroke-linecap:round; stroke-linejoin:round;">
</g>
<g style="fill:#008484; fill-opacity:1.0; 
stroke:#008484; stroke-width:0; stroke-opacity:1; 
stroke-linecap:round; stroke-linejoin:round;">
</g>
<g style="fill:#008484; fill-opacity:0.0; 
stroke:#008484; stroke-width:0; stroke-opacity:1; 
stroke-linecap:round; stroke-linejoin:round;">
</g>
<g style="fill:#008484; fill-opacity:0.0; 
stroke:#008484; stroke-width:78.7402; stroke-opacity:1; 
stroke-linecap:round; stroke-linejoin:round;">
<path d="M32446 49403
L32409 49384
L32353 49384
L32296 49403
L32259 49440
L32240 49478
L32221 49553
L32221 49609
L32240 49684
L32259 49721
L32296 49759
L32353 49778
L32390 49778
L32446 49759
L32465 49740
L32465 49609
L32390 49609
" />
<path d="M32634 49778
L32634 49384
L32859 49778
L32859 49384
" />
<path d="M33046 49778
L33046 49384
L33140 49384
L33196 49403
L33234 49440
L33252 49478
L33271 49553
L33271 49609
L33252 49684
L33234 49721
L33196 49759
L33140 49778
L33046 49778
" />
<path d="M31134 48778
L30946 48778
L30946 48384
" />
<path d="M31265 48571
L31396 48571
" />
<path d="M31453 48778
L31265 48778
L31265 48384
L31453 48384
" />
<path d="M31621 48778
L31621 48384
L31715 48384
L31771 48403
L31809 48440
L31828 48478
L31846 48553
L31846 48609
L31828 48684
L31809 48721
L31771 48759
L31715 48778
L31621 48778
" />
<path d="M31921 48815
L32221 48815
" />
<path d="M32390 48384
L32465 48384
L32503 48403
L32540 48440
L32559 48515
L32559 48646
L32540 48721
L32503 48759
L32465 48778
L32390 48778
L32353 48759
L32315 48721
L32296 48646
L32296 48515
L32315 48440
L32353 48403
L32390 48384
" />
<path d="M32728 48384
L32728 48703
L32746 48740
L32765 48759
L32802 48778
L32877 48778
L32915 48759
L32934 48740
L32952 48703
L32952 48384
" />
<path d="M33084 48384
L33309 48384
" />
<path d="M33196 48778
L33196 48384
" />
<path d="M30647 47778
L30647 47384
L30740 47384
L30797 47403
L30834 47440
L30853 47478
L30871 47553
L30871 47609
L30853 47684
L30834 47721
L30797 47759
L30740 47778
L30647 47778
" />
<path d="M31021 47665
L31209 47665
" />
<path d="M30984 47778
L31115 47384
L31246 47778
" />
<path d="M31321 47384
L31546 47384
" />
<path d="M31434 47778
L31434 47384
" />
<path d="M31659 47665
L31846 47665
" />
<path d="M31621 47778
L31753 47384
L31884 47778
" />
<path d="M31921 47815
L32221 47815
" />
<path d="M32390 47384
L32465 47384
L32503 47403
L32540 47440
L32559 47515
L32559 47646
L32540 47721
L32503 47759
L32465 47778
L32390 47778
L32353 47759
L32315 47721
L32296 47646
L32296 47515
L32315 47440
L32353 47403
L32390 47384
" />
<path d="M32728 47384
L32728 47703
L32746 47740
L32765 47759
L32802 47778
L32877 47778
L32915 47759
L32934 47740
L32952 47703
L32952 47384
" />
<path d="M33084 47384
L33309 47384
" />
<path d="M33196 47778
L33196 47384
" />
<path d="M32952 46484
L32765 46484
L32746 46671
L32765 46653
L32802 46634
L32896 46634
L32934 46653
L32952 46671
L32971 46709
L32971 46803
L32952 46840
L32934 46859
L32896 46878
L32802 46878
L32765 46859
L32746 46840
" />
<path d="M33102 46615
L33196 46878
L33290 46615
" />
<path d="M24815 49503
L24778 49484
L24721 49484
L24665 49503
L24628 49540
L24609 49578
L24590 49653
L24590 49709
L24609 49784
L24628 49821
L24665 49859
L24721 49878
L24759 49878
L24815 49859
L24834 49840
L24834 49709
L24759 49709
" />
<path d="M25003 49878
L25003 49484
L25228 49878
L25228 49484
" />
<path d="M25415 49878
L25415 49484
L25509 49484
L25565 49503
L25603 49540
L25621 49578
L25640 49653
L25640 49709
L25621 49784
L25603 49821
L25565 49859
L25509 49878
L25415 49878
" />
<path d="M24796 48878
L24609 48878
L24609 48484
" />
<path d="M24928 48671
L25059 48671
" />
<path d="M25115 48878
L24928 48878
L24928 48484
L25115 48484
" />
<path d="M25284 48878
L25284 48484
L25378 48484
L25434 48503
L25471 48540
L25490 48578
L25509 48653
L25509 48709
L25490 48784
L25471 48821
L25434 48859
L25378 48878
L25284 48878
" />
<path d="M25584 48915
L25884 48915
" />
<path d="M25978 48878
L25978 48484
" />
<path d="M26165 48878
L26165 48484
L26390 48878
L26390 48484
" />
<path d="M24609 47878
L24609 47484
L24703 47484
L24759 47503
L24796 47540
L24815 47578
L24834 47653
L24834 47709
L24815 47784
L24796 47821
L24759 47859
L24703 47878
L24609 47878
" />
<path d="M24984 47765
L25171 47765
" />
<path d="M24946 47878
L25078 47484
L25209 47878
" />
<path d="M25284 47484
L25509 47484
" />
<path d="M25396 47878
L25396 47484
" />
<path d="M25621 47765
L25809 47765
" />
<path d="M25584 47878
L25715 47484
L25846 47878
" />
<path d="M25884 47915
L26184 47915
" />
<path d="M26278 47878
L26278 47484
" />
<path d="M26465 47878
L26465 47484
L26690 47878
L26690 47484
" />
<path d="M24796 46584
L24609 46584
L24590 46771
L24609 46753
L24646 46734
L24740 46734
L24778 46753
L24796 46771
L24815 46809
L24815 46903
L24796 46940
L24778 46959
L24740 46978
L24646 46978
L24609 46959
L24590 46940
" />
<path d="M24946 46715
L25040 46978
L25134 46715
" />
</g>
<g style="fill:#008484; fill-opacity:0.0; 
stroke:#008484; stroke-width:59.0551; stroke-opacity:1; 
stroke-linecap:round; stroke-linejoin:round;">
<path d="M34710 50310
L33489 50310
" />
<path d="M34710 49700
L34710 50310
" />
<path d="M33600 49200
L34600 49200
" />
<path d="M34600 46200
L33600 46200
" />
<path d="M33489 50310
L33489 49700
" />
<path d="M33600 49200
L33600 46200
" />
<path d="M34600 49200
L34600 46200
" />
<path d="M24300 49200
L24300 46200
" />
<path d="M23300 49200
L23300 46200
" />
<path d="M23189 50310
L23189 49700
" />
<path d="M24300 46200
L23300 46200
" />
<path d="M23300 49200
L24300 49200
" />
<path d="M24410 49700
L24410 50310
" />
<path d="M24410 50310
L23189 50310
" />
<path d="M28289 46710
L28900 46710
" />
<path d="M28289 45489
L28289 46710
" />
<path d="M28289 45489
L28900 45489
" />
<path d="M29400 46600
L29400 45600
" />
<path d="M29400 48900
L29400 47900
" />
<path d="M28289 47789
L28900 47789
" />
<path d="M28289 47789
L28289 49010
" />
<path d="M28289 49010
L28900 49010
" />
</g>
<g style="fill:#008484; fill-opacity:0.0; 
stroke:#008484; stroke-width:47.2441; stroke-opacity:1; 
stroke-linecap:round; stroke-linejoin:round;">
<path d="M27265 51803
L27265 52196
" />
<path d="M27934 52196
L27934 51803
" />
<path d="M27634 54296
L27634 53903
" />
<path d="M26965 53903
L26965 54296
" />
<path d="M27722 53076
L27722 53470
" />
<path d="M30477 53076
L27722 53076
" />
<path d="M30477 55123
L27722 55123
" />
<path d="M25323 53923
L24800 53923
" />
<path d="M25323 53400
L25323 53923
" />
<path d="M24300 53923
L23276 53923
" />
<path d="M24300 52900
L24300 53923
" />
<path d="M25323 52900
L24300 52900
" />
<path d="M23276 53923
L23276 50876
" />
<path d="M25323 52900
L25323 50876
" />
<path d="M25323 50876
L23276 50876
" />
<path d="M30646 51763
L30646 52236
" />
<path d="M29953 52236
L29953 51763
" />
<path d="M28545 52633
L29510 52633
" />
<path d="M29254 51366
L28545 51366
" />
</g>
<g style="fill:#C2C200; fill-opacity:0.0; 
stroke:#C2C200; stroke-width:47.2441; stroke-opacity:1; 
stroke-linecap:round; stroke-linejoin:round;">
</g>
<g style="fill:#C2C200; fill-opacity:0.0; 
stroke:#C2C200; stroke-width:59.0551; stroke-opacity:1; 
stroke-linecap:round; stroke-linejoin:round;">
<path d="M28768 46176
L28768 46457
L28750 46513
L28712 46551
L28656 46570
L28618 46570
" />
<path d="M28937 46214
L28956 46195
L28993 46176
L29087 46176
L29124 46195
L29143 46214
L29162 46251
L29162 46289
L29143 46345
L28918 46570
L29162 46570
" />
<path d="M27534 51240
L27515 51259
L27459 51278
L27421 51278
L27365 51259
L27328 51221
L27309 51184
L27290 51109
L27290 51053
L27309 50978
L27328 50940
L27365 50903
L27421 50884
L27459 50884
L27515 50903
L27534 50921
" />
<path d="M27684 50921
L27703 50903
L27740 50884
L27834 50884
L27871 50903
L27890 50921
L27909 50959
L27909 50996
L27890 51053
L27665 51278
L27909 51278
" />
<path d="M27234 53340
L27215 53359
L27159 53378
L27121 53378
L27065 53359
L27028 53321
L27009 53284
L26990 53209
L26990 53153
L27009 53078
L27028 53040
L27065 53003
L27121 52984
L27159 52984
L27215 53003
L27234 53021
" />
<path d="M27609 53378
L27384 53378
" />
<path d="M27496 53378
L27496 52984
L27459 53040
L27421 53078
L27384 53096
" />
<path d="M27959 55578
L27771 55578
L27771 55184
" />
<path d="M28090 55371
L28221 55371
" />
<path d="M28278 55578
L28090 55578
L28090 55184
L28278 55184
" />
<path d="M28446 55578
L28446 55184
L28540 55184
L28596 55203
L28634 55240
L28653 55278
L28671 55353
L28671 55409
L28653 55484
L28634 55521
L28596 55559
L28540 55578
L28446 55578
" />
<path d="M29046 55578
L28821 55578
" />
<path d="M28934 55578
L28934 55184
L28896 55240
L28859 55278
L28821 55296
" />
<path d="M23718 54495
L23718 54101
" />
<path d="M24131 54457
L24112 54476
L24056 54495
L24018 54495
L23962 54476
L23925 54439
L23906 54401
L23887 54326
L23887 54270
L23906 54195
L23925 54157
L23962 54120
L24018 54101
L24056 54101
L24112 54120
L24131 54139
" />
<path d="M24281 54476
L24337 54495
L24431 54495
L24468 54476
L24487 54457
L24506 54420
L24506 54382
L24487 54345
L24468 54326
L24431 54307
L24356 54289
L24318 54270
L24300 54251
L24281 54214
L24281 54176
L24300 54139
L24318 54120
L24356 54101
L24449 54101
L24506 54120
" />
<path d="M24674 54495
L24674 54101
L24824 54101
L24862 54120
L24881 54139
L24899 54176
L24899 54232
L24881 54270
L24862 54289
L24824 54307
L24674 54307
" />
<path d="M30234 51278
L30103 51090
" />
<path d="M30009 51278
L30009 50884
L30159 50884
L30196 50903
L30215 50921
L30234 50959
L30234 51015
L30215 51053
L30196 51071
L30159 51090
L30009 51090
" />
<path d="M30609 51278
L30384 51278
" />
<path d="M30496 51278
L30496 50884
L30459 50940
L30421 50978
L30384 50996
" />
<path d="M28500 50884
L28500 51203
L28518 51240
L28537 51259
L28575 51278
L28650 51278
L28687 51259
L28706 51240
L28725 51203
L28725 50884
" />
<path d="M29118 51278
L28893 51278
" />
<path d="M29006 51278
L29006 50884
L28968 50940
L28931 50978
L28893 50996
" />
</g>
<g style="fill:#000000; fill-opacity:0.0; 
stroke:#000000; stroke-width:59.0551; stroke-opacity:1; 
stroke-linecap:round; stroke-linejoin:round;">
</g>
<g style="fill:#C2C200; fill-opacity:0.0; 
stroke:#C2C200; stroke-width:59.0551; stroke-opacity:1; 
stroke-linecap:round; stroke-linejoin:round;">
</g>
<g style="fill:#C2C200; fill-opacity:0.0; 
stroke:#C2C200; stroke-width:39.3701; stroke-opacity:1; 
stroke-linecap:round; stroke-linejoin:round;">
<path d="M27844 52393
L27355 52393
" />
<path d="M27844 51606
L27844 52393
" />
<path d="M27355 51606
L27844 51606
" />
<path d="M27355 52393
L27355 51606
" />
<path d="M27055 54493
L27055 53706
" />
<path d="M27055 53706
L27544 53706
" />
<path d="M27544 53706
L27544 54493
" />
<path d="M27544 54493
L27055 54493
" />
<circle cx="29100" cy="54100" r="787.402" /> 
<path d="M28115 55084
L30084 55084
" />
<path d="M28115 53115
L28115 55084
" />
<path d="M30084 53115
L28115 53115
" />
<path d="M30084 55084
L30084 53115
" />
<path d="M28115 53509
L28509 53115
" />
<path d="M25300 53400
L24800 53900
" />
<path d="M25300 50900
L25300 53400
" />
<path d="M23300 50900
L25300 50900
" />
<path d="M23300 53900
L23300 50900
" />
<path d="M24800 53900
L23300 53900
" />
<path d="M30544 51606
L30544 52393
" />
<path d="M30544 52393
L30055 52393
" />
<path d="M30055 52393
L30055 51606
" />
<path d="M30055 51606
L30544 51606
" />
<path d="M28545 52610
L28545 51389
" />
<path d="M28545 51389
L29254 51389
" />
<path d="M29254 52354
L29254 51389
" />
<path d="M28545 52610
L28998 52610
" />
<path d="M29254 52354
L28998 52610
" />
</g>
<g style="fill:#000000; fill-opacity:0.0; 
stroke:#000000; stroke-width:39.3701; stroke-opacity:1; 
stroke-linecap:round; stroke-linejoin:round;">
</g>
<g style="fill:#C2C200; fill-opacity:0.0; 
stroke:#C2C200; stroke-width:39.3701; stroke-opacity:1; 
stroke-linecap:round; stroke-linejoin:round;">
</g>
<g style="fill:#C2C200; fill-opacity:0.0; 
stroke:#C2C200; stroke-width:59.0551; stroke-opacity:1; 
stroke-linecap:round; stroke-linejoin:round;">
<path d="M30900 41000
L27000 41000
" />
<path d="M30900 43000
L30900 41000
" />
<path d="M27000 43000
L30900 43000
" />
<path d="M27000 41000
L27000 43000
" />
<path d="M23000 41000
L26800 41000
" />
<path d="M31100 41000
L34800 41000
" />
<path d="M31100 43200
L31100 41000
" />
<path d="M26800 43200
L31100 43200
" />
<path d="M26800 41000
L26800 43200
" />
<path d="M34811 56748
L23000 56748
" />
<path d="M34811 41000
L34811 56748
" />
</g>
<g style="fill:#C2C200; fill-opacity:0.0; 
stroke:#C2C200; stroke-width:78.7402; stroke-opacity:1; 
stroke-linecap:round; stroke-linejoin:round;">
<path d="M23000 41000
L23000 56748
" />
</g> 
</svg>
